<svg width="616" height="402" viewBox="0 0 616 402" fill="none" xmlns="http://www.w3.org/2000/svg">
<rect x="29" y="22" width="184.661" height="350.72" rx="10" fill="white" stroke="black" stroke-width="6"/>
<path d="M88 23L96.2005 47.6014H146.428L154.629 23" stroke="black" stroke-width="5"/>
<line x1="114.155" y1="347.069" x2="126.455" y2="347.069" stroke="black" stroke-width="4"/>
<rect x="374" y="74.2222" width="216.667" height="244.352" rx="57" fill="url(#paint0_linear)"/>
<path d="M482.334 67C421.591 67 374.001 88.4175 374.001 115.75C374.001 143.083 421.591 164.5 482.334 164.5C543.076 164.5 590.667 143.083 590.667 115.75C590.667 88.4175 543.076 67 482.334 67ZM482.334 153.667C424.874 153.667 384.834 133.679 384.834 115.75C384.834 97.8207 424.874 77.8332 482.334 77.8332C539.794 77.8332 579.834 97.8207 579.834 115.75C579.834 133.679 539.794 153.667 482.334 153.667Z" fill="black"/>
<path d="M585.25 164.5C582.26 164.5 579.834 166.927 579.834 169.917C579.834 187.846 539.794 207.834 482.334 207.834C424.874 207.834 384.834 187.846 384.834 169.917C384.834 166.927 382.407 164.5 379.417 164.5C376.427 164.5 374 166.927 374 169.917C374 197.249 421.591 218.667 482.333 218.667C543.076 218.667 590.666 197.249 590.666 169.917C590.667 166.927 588.24 164.5 585.25 164.5Z" fill="black"/>
<path d="M585.25 218.667C582.26 218.667 579.834 221.094 579.834 224.084C579.834 242.012 539.794 262 482.334 262C424.874 262 384.834 242.012 384.834 224.083C384.834 221.093 382.407 218.666 379.417 218.666C376.427 218.666 374 221.093 374 224.083C374 251.416 421.591 272.833 482.333 272.833C543.076 272.833 590.666 251.416 590.666 224.083C590.667 221.093 588.24 218.667 585.25 218.667Z" fill="black"/>
<path d="M585.251 110.333C582.261 110.333 579.834 112.76 579.834 115.75V278.25C579.834 296.179 539.794 316.167 482.334 316.167C424.874 316.167 384.834 296.179 384.834 278.25V115.75C384.834 112.76 382.407 110.333 379.417 110.333C376.427 110.333 374.001 112.76 374.001 115.75V278.25C374.001 305.582 421.591 327 482.334 327C543.076 327 590.667 305.582 590.667 278.25V115.75C590.667 112.76 588.241 110.333 585.251 110.333Z" fill="black"/>
<circle cx="403.491" cy="171.12" r="6.62037" fill="#414141"/>
<circle cx="403.491" cy="225.287" r="6.62037" fill="#414141"/>
<circle cx="403.491" cy="279.454" r="6.62037" fill="#414141"/>
<path d="M419.741 174.13C456.6 192.088 508.739 191.477 546.13 174.13" stroke="#414141" stroke-width="4" stroke-linejoin="round"/>
<path d="M419.741 228.296C456.6 246.255 508.739 245.644 546.13 228.296" stroke="#414141" stroke-width="4" stroke-linejoin="round"/>
<path d="M419.741 280.056C456.6 298.014 508.739 297.403 546.13 280.056" stroke="#414141" stroke-width="4" stroke-linejoin="round"/>
<path d="M204 197.517C204 186.582 190.312 176.219 169.325 169.792C174.168 148.393 172.016 131.369 162.531 125.918C160.345 124.639 157.789 124.034 154.998 124.034V131.537C156.545 131.537 157.789 131.84 158.832 132.412C163.406 135.036 165.39 145.029 163.843 157.882C163.473 161.044 162.868 164.375 162.128 167.774C155.536 166.159 148.339 164.914 140.771 164.106C136.231 157.882 131.522 152.229 126.78 147.283C137.744 137.088 148.036 131.503 155.031 131.503V124C145.783 124 133.675 130.595 121.433 142.034C109.191 130.662 97.083 124.135 87.8341 124.135V131.638C94.796 131.638 105.121 137.189 116.085 147.317C111.377 152.263 106.668 157.882 102.195 164.106C94.5942 164.914 87.3969 166.159 80.8049 167.807C80.0314 164.443 79.4596 161.179 79.0561 158.05C77.4753 145.197 79.426 135.204 83.9664 132.546C84.9753 131.94 86.287 131.671 87.8341 131.671V124.168C85.009 124.168 82.4529 124.774 80.2332 126.052C70.7825 131.503 68.6637 148.494 73.5404 169.826C52.6211 176.286 39 186.615 39 197.517C39 208.452 52.6883 218.815 73.6749 225.241C68.8318 246.64 70.9843 263.665 80.4686 269.116C82.6547 270.394 85.2108 271 88.0359 271C97.2848 271 109.392 264.405 121.635 252.966C133.877 264.338 145.984 270.865 155.233 270.865C158.058 270.865 160.614 270.26 162.834 268.981C172.285 263.531 174.404 246.539 169.527 225.208C190.379 218.781 204 208.418 204 197.517ZM160.211 175.075C158.966 179.415 157.419 183.89 155.67 188.365C154.291 185.673 152.845 182.982 151.265 180.29C149.717 177.598 148.07 174.974 146.422 172.417C151.197 173.123 155.805 173.998 160.211 175.075ZM144.807 210.908C142.184 215.45 139.493 219.757 136.702 223.761C131.691 224.198 126.612 224.434 121.5 224.434C116.422 224.434 111.343 224.198 106.365 223.794C103.574 219.791 100.85 215.518 98.2265 211.009C95.6704 206.601 93.3498 202.126 91.2309 197.618C93.3161 193.109 95.6704 188.601 98.1928 184.193C100.816 179.651 103.507 175.344 106.298 171.34C111.309 170.903 116.388 170.667 121.5 170.667C126.578 170.667 131.657 170.903 136.635 171.306C139.426 175.31 142.15 179.583 144.774 184.092C147.33 188.5 149.65 192.975 151.769 197.483C149.65 201.992 147.33 206.5 144.807 210.908ZM155.67 206.534C157.487 211.043 159.034 215.551 160.312 219.925C155.906 221.002 151.265 221.91 146.455 222.617C148.103 220.026 149.751 217.368 151.298 214.643C152.845 211.951 154.291 209.226 155.67 206.534ZM121.567 242.434C118.439 239.204 115.312 235.604 112.217 231.668C115.244 231.802 118.339 231.903 121.466 231.903C124.628 231.903 127.756 231.836 130.816 231.668C127.789 235.604 124.661 239.204 121.567 242.434ZM96.5448 222.617C91.7691 221.91 87.1614 221.035 82.7556 219.959C84 215.618 85.5471 211.144 87.296 206.669C88.6749 209.36 90.1211 212.052 91.7018 214.744C93.2825 217.435 94.8969 220.06 96.5448 222.617ZM121.399 152.599C124.527 155.829 127.655 159.429 130.749 163.366C127.722 163.231 124.628 163.13 121.5 163.13C118.339 163.13 115.211 163.198 112.15 163.366C115.177 159.429 118.305 155.829 121.399 152.599ZM96.5112 172.417C94.8632 175.008 93.2152 177.666 91.6682 180.391C90.1211 183.083 88.6749 185.774 87.296 188.466C85.4798 183.957 83.9327 179.449 82.6547 175.075C87.0605 174.032 91.7018 173.123 96.5112 172.417ZM66.074 214.542C54.1682 209.461 46.4664 202.799 46.4664 197.517C46.4664 192.234 54.1682 185.539 66.074 180.492C68.9664 179.247 72.1278 178.137 75.3901 177.094C77.3072 183.688 79.8296 190.552 82.9574 197.584C79.8632 204.583 77.3744 211.413 75.491 217.974C72.1614 216.931 69 215.787 66.074 214.542ZM84.1682 262.622C79.5942 259.998 77.6099 250.005 79.157 237.152C79.5269 233.989 80.1323 230.658 80.8722 227.26C87.4641 228.875 94.6614 230.12 102.229 230.927C106.769 237.152 111.478 242.805 116.22 247.751C105.256 257.945 94.9641 263.531 87.9686 263.531C86.4552 263.497 85.1771 263.194 84.1682 262.622ZM163.944 236.984C165.525 249.837 163.574 259.829 159.034 262.488C158.025 263.093 156.713 263.362 155.166 263.362C148.204 263.362 137.879 257.811 126.915 247.683C131.623 242.737 136.332 237.118 140.805 230.894C148.406 230.086 155.603 228.841 162.195 227.193C162.969 230.591 163.574 233.855 163.944 236.984ZM176.892 214.542C174 215.787 170.839 216.897 167.576 217.94C165.659 211.345 163.137 204.482 160.009 197.45C163.103 190.451 165.592 183.621 167.475 177.06C170.805 178.103 173.966 179.247 176.926 180.492C188.832 185.572 196.534 192.234 196.534 197.517C196.5 202.799 188.798 209.495 176.892 214.542Z" fill="#61DAFB"/>
<path d="M121.466 212.893C129.955 212.893 136.836 206.009 136.836 197.517C136.836 189.025 129.955 182.141 121.466 182.141C112.978 182.141 106.096 189.025 106.096 197.517C106.096 206.009 112.978 212.893 121.466 212.893Z" fill="#61DAFB"/>
<path d="M299.498 189.185H315.362V200.654H299.498V218.584H287.413V200.654H271.505V189.185H287.413V172.002H299.498V189.185Z" fill="#020202"/>
<defs>
<linearGradient id="paint0_linear" x1="482.333" y1="74.2222" x2="482.333" y2="318.574" gradientUnits="userSpaceOnUse">
<stop offset="0.991473" stop-color="white"/>
<stop offset="1" stop-color="#94ADED" stop-opacity="0"/>
</linearGradient>
</defs>
</svg>
