<svg width="616" height="402" viewBox="0 0 616 402" fill="none" xmlns="http://www.w3.org/2000/svg">
<path d="M130.295 154.299C127.877 155.767 126.338 157.856 125.676 160.567C125.015 163.277 125.4 165.813 126.835 168.174L148.862 204.433C150.333 206.853 152.421 208.39 155.131 209.052C157.842 209.714 160.405 209.311 162.823 207.843C165.239 206.375 166.765 204.293 167.401 201.599C168.033 198.906 167.619 196.352 166.148 193.931L144.121 157.673C142.687 155.311 140.614 153.8 137.904 153.139C135.193 152.477 132.656 152.864 130.295 154.299Z" fill="#A4C639"/>
<path d="M180.341 79.3342L179.618 64.6528C179.567 63.6829 179.086 63.2071 178.173 63.2222C177.235 63.3266 176.778 63.8402 176.793 64.7511L177.486 79.5717C170.709 80.4551 164.341 82.7043 158.383 86.3237C152.424 89.9438 147.493 94.5597 143.588 100.165L130.753 92.7206C129.951 92.2879 129.285 92.4586 128.761 93.2403C128.326 94.0466 128.526 94.6904 129.364 95.182L142.061 102.589C137.871 109.373 135.655 116.622 135.421 124.345C135.189 132.07 137.068 139.217 141.064 145.796L219.06 98.4131C215.064 91.836 209.587 86.8752 202.623 83.5194C195.662 80.1682 188.235 78.7769 180.341 79.3342ZM155.486 116.426C155.233 117.469 154.655 118.261 153.757 118.807C152.856 119.355 151.902 119.492 150.89 119.218C149.879 118.948 149.102 118.365 148.555 117.463C148.008 116.565 147.849 115.605 148.073 114.582C148.299 113.561 148.862 112.776 149.761 112.23C150.66 111.684 151.629 111.538 152.669 111.79C153.709 112.047 154.502 112.62 155.048 113.519C155.593 114.42 155.738 115.389 155.486 116.426ZM191.026 94.8353C190.801 95.8605 190.238 96.6448 189.341 97.1899C188.44 97.7372 187.471 97.8839 186.43 97.6275C185.391 97.3747 184.6 96.8007 184.052 95.8987C183.506 94.9999 183.36 94.0319 183.614 92.9913C183.867 91.9528 184.444 91.1602 185.345 90.6129C186.244 90.0668 187.198 89.9295 188.21 90.1991C189.223 90.4723 189.999 91.0551 190.545 91.954C191.092 92.8544 191.252 93.8138 191.026 94.8353Z" fill="#A4C639"/>
<path d="M177.358 204.784C178.93 207.372 181.16 209.017 184.051 209.723C186.942 210.427 189.68 209.995 192.266 208.424L198.506 204.633L210.221 223.724C211.69 226.141 213.78 227.682 216.49 228.344C219.201 229.006 221.738 228.619 224.098 227.185C226.514 225.718 228.054 223.628 228.716 220.917C229.378 218.206 228.974 215.641 227.506 213.224L215.877 194.082L227.513 187.014L239.142 206.155C240.61 208.572 242.7 210.113 245.411 210.775C248.122 211.437 250.685 211.034 253.102 209.565C255.518 208.097 257.059 206.007 257.721 203.297C258.383 200.586 257.978 198.021 256.51 195.604L244.881 176.462L251.206 172.62C253.735 171.084 255.352 168.871 256.061 165.978C256.766 163.088 256.334 160.351 254.762 157.763L220.644 101.602L143.241 148.625L177.358 204.784Z" fill="#A4C639"/>
<path d="M231.65 92.7247C229.289 94.1594 227.77 96.2191 227.09 98.9002C226.413 101.584 226.808 104.135 228.275 106.55L250.302 142.808C251.772 145.228 253.86 146.766 256.571 147.428C259.282 148.089 261.818 147.703 264.179 146.269C266.595 144.801 268.135 142.711 268.797 140C269.459 137.289 269.057 134.728 267.586 132.307L245.559 96.0492C244.092 93.6346 242.011 92.1081 239.316 91.4729C236.624 90.8406 234.067 91.2569 231.65 92.7247Z" fill="#A4C639"/>
<path d="M347.215 45.2989C345.563 50.3699 342.89 55.0699 339.667 58.9789V58.9861C336.416 62.9175 332.073 66.3934 327.242 68.6981C322.808 70.8132 317.947 71.9523 313.11 71.5753L311.63 71.4599L311.435 69.986C310.807 65.2327 311.533 60.4209 313.061 55.9679C314.839 50.7861 317.72 46.058 320.811 42.4753L320.81 42.4748C324.009 38.7277 328.299 35.4676 332.893 33.1054C337.502 30.7351 342.453 29.253 346.958 29.0694L348.662 29L348.848 30.7016C349.394 35.6781 348.73 40.6491 347.215 45.2989L347.215 45.2989Z" fill="#CECCCD"/>
<path d="M378.531 90.0045C376.898 91.0148 361.116 100.78 361.312 120.465C361.518 144.195 381.64 152.421 382.75 152.875H382.757L382.805 152.895L384.384 153.549L383.843 155.164C383.811 155.26 383.848 155.158 383.801 155.308C383.288 156.953 379.807 168.103 371.945 179.592C368.377 184.803 364.742 190.007 360.451 194.021C356.007 198.176 350.932 200.982 344.663 201.098C338.754 201.209 334.886 199.535 330.864 197.795C327.03 196.136 323.042 194.41 316.801 194.41C310.246 194.41 306.055 196.195 302.019 197.915C298.219 199.534 294.545 201.099 289.251 201.31H289.244C283.131 201.537 277.83 198.558 273.119 194.144C268.612 189.922 264.663 184.392 261.065 179.188C252.942 167.459 245.878 150.394 243.696 133.041C241.9 118.768 243.401 104.268 250.302 92.2936C254.154 85.5937 259.538 80.1259 265.833 76.3106C272.099 72.5128 279.268 70.3515 286.731 70.2397V70.2395C293.264 70.121 299.424 72.5657 304.814 74.7048C308.629 76.2186 312.028 77.5675 314.576 77.5675C316.827 77.5675 320.145 76.2592 324.013 74.7341C330.546 72.1585 338.539 69.0078 346.99 69.8482C350.539 70.0025 357.931 70.8526 365.488 74.9479C370.302 77.5568 375.184 81.4736 379.198 87.3479L380.257 88.897L378.676 89.9179C378.591 89.9725 378.673 89.9168 378.531 90.0045L378.531 90.0045Z" fill="#CECCCD"/>
<path d="M235.305 170.487L229.501 123.75L168.976 138.334L173.915 178.11L235.305 170.487Z" fill="#00BCD4"/>
<path d="M244.075 169.398L314.234 160.686L307.32 105L238.148 121.667L244.075 169.398Z" fill="#00BCD4"/>
<path d="M245.062 177.353L250.989 225.084L322.137 224.327L315.222 168.641L245.062 177.353Z" fill="#00BCD4"/>
<path d="M236.292 178.442L174.903 186.065L179.842 225.84L242.096 225.178L236.292 178.442Z" fill="#00BCD4"/>
<path d="M448.865 140.854C432.87 106.552 392.162 91.7308 357.855 107.729C323.551 123.725 308.731 164.432 324.729 198.74C340.724 233.043 381.432 247.864 415.74 231.866C450.043 215.87 464.864 175.162 448.865 140.854ZM416.389 221.713C414.361 217.93 412.011 214.38 409.367 211.095C414.425 204.17 418.853 196.136 422.389 187.396L441.31 194.283C436.11 205.906 427.45 215.432 416.389 221.713ZM329.3 153.514L348.22 160.401C345.311 169.369 343.538 178.37 342.962 186.926C338.825 187.742 334.743 188.951 330.758 190.546C326.322 178.624 325.811 165.76 329.3 153.514V153.514ZM357.205 117.882C359.234 121.665 361.584 125.215 364.228 128.5C359.17 135.424 354.742 143.459 351.206 152.199L332.285 145.312C337.484 133.689 346.144 124.163 357.205 117.882V117.882ZM393.021 139.939C386.506 137.027 380.657 133.032 375.667 128.138C382.403 120.45 392.722 112.044 402.92 112.742L393.021 139.939ZM390.03 148.157L384.189 164.204L359.411 155.185C362.421 147.799 366.1 140.993 370.26 135.055C375.973 140.498 382.634 144.931 390.03 148.157V148.157ZM381.204 172.406L375.363 188.453C367.624 186.17 359.672 185.285 351.797 185.782C352.427 178.559 353.983 170.981 356.426 163.387L381.204 172.406ZM372.372 196.67L362.473 223.868C354.213 217.848 351.712 204.777 351.493 194.556C358.461 194.015 365.51 194.714 372.372 196.67ZM380.574 199.656C387.088 202.568 392.938 206.563 397.927 211.457C391.191 219.145 380.873 227.551 370.675 226.853L380.574 199.656ZM383.565 191.438L389.406 175.391L414.184 184.41C411.174 191.796 407.495 198.602 403.335 204.54C397.622 199.097 390.96 194.664 383.565 191.438ZM392.391 167.189L398.232 151.142C405.97 153.425 413.923 154.31 421.798 153.813C421.168 161.036 419.611 168.615 417.169 176.208L392.391 167.189ZM401.222 142.925L411.121 115.727C419.382 121.748 421.883 134.82 422.101 145.039C415.134 145.58 408.085 144.881 401.222 142.925ZM428.052 126.526C432.465 130.736 436.228 135.635 439.211 141.101C436.45 142.183 433.637 143.051 430.791 143.707C430.588 137.9 429.767 132.029 428.052 126.526V126.526ZM369.867 121.533C368.108 119.2 366.511 116.727 365.092 114.124C370.89 111.854 376.922 110.52 383.008 110.132C378.157 113.245 373.754 117.214 369.867 121.533V121.533ZM342.804 195.888C343.006 201.695 343.828 207.566 345.543 213.069C341.13 208.859 337.367 203.96 334.384 198.494C337.144 197.412 339.958 196.544 342.804 195.888V195.888ZM403.727 218.062C405.486 220.395 407.083 222.868 408.502 225.471C402.704 227.74 396.672 229.075 390.586 229.463C395.437 226.351 399.84 222.381 403.727 218.062ZM425.375 179.194C428.283 170.226 430.056 161.225 430.633 152.669C434.769 151.853 438.851 150.644 442.837 149.049C447.273 160.971 447.783 173.835 444.295 186.081L425.375 179.194Z" fill="#2275AA"/>
<line x1="178.951" y1="392.134" x2="440.74" y2="392.134" stroke="black" stroke-width="7"/>
<path d="M247.244 280.675L304.154 208.967V391.081H178.951V280.675H247.244Z" fill="white"/>
<path d="M366.756 280.675L309.846 208.967V391.081H435.049V280.675H366.756Z" fill="white"/>
<line x1="176.451" y1="395.634" x2="176.451" y2="282.951" stroke="black" stroke-width="5"/>
<line x1="307.346" y1="395.634" x2="307.346" y2="201" stroke="black" stroke-width="5"/>
<line x1="438.24" y1="395.634" x2="438.24" y2="201" stroke="black" stroke-width="5"/>
<path d="M103.86 279.951L174.093 204H303.701L244.461 279.951H103.86Z" fill="white" stroke="black" stroke-width="6"/>
<path d="M510.14 279.951L439.907 204H310.299L369.539 279.951H510.14Z" fill="white" stroke="black" stroke-width="6"/>
</svg>
