<svg width="616" height="402" viewBox="0 0 616 402" fill="none" xmlns="http://www.w3.org/2000/svg">
<rect x="124.5" y="149.5" width="368" height="212" fill="white" stroke="black" stroke-width="7"/>
<line x1="125" y1="215.5" x2="496" y2="215.5" stroke="black" stroke-width="7"/>
<rect x="176.5" y="217.5" width="13" height="28" fill="white" stroke="black" stroke-width="7"/>
<rect x="426.5" y="217.5" width="13" height="28" fill="white" stroke="black" stroke-width="7"/>
<path d="M271 128.5V148.5H241.5V82.5H374.5V148.5H342V134.5V117V113.5H338.5H310.5H274.5H271V117V128.5Z" fill="white" stroke="black" stroke-width="7"/>
<path fill-rule="evenodd" clip-rule="evenodd" d="M252.474 230.192C251.9 230.55 251.551 231.18 251.553 231.856L251.587 243.341L248.842 246.086L242.696 245.983L239.918 243.206L239.845 231.845C239.841 231.173 239.491 230.551 238.918 230.199C238.346 229.847 237.632 229.815 237.029 230.115C235.134 231.055 233.409 232.297 231.9 233.806C227.402 238.305 225.409 244.485 226.431 250.762C227.389 256.638 230.819 261.584 235.912 264.505L235.893 284.832L235.889 288.735L235.885 292.637L235.881 296.539L235.861 316.788C230.762 319.721 227.322 324.676 226.353 330.557C225.318 336.833 227.3 343.006 231.79 347.496C233.295 349.001 235.019 350.24 236.911 351.177C237.517 351.477 238.236 351.442 238.809 351.083C239.384 350.725 239.733 350.095 239.731 349.419L239.697 337.934L242.457 335.174L248.74 335.168L251.495 337.923L251.438 349.407C251.435 350.084 251.783 350.713 252.357 351.07C252.93 351.427 253.649 351.461 254.255 351.16C256.149 350.22 257.875 348.977 259.384 347.469C263.882 342.971 265.875 336.793 264.853 330.519C263.895 324.64 260.465 319.692 255.372 316.769L255.388 300.507L255.391 296.601L255.402 284.732L255.407 280.826L255.423 264.484C256.895 263.632 258.252 262.589 259.468 261.374C267.083 253.758 267.095 241.38 259.495 233.78C257.989 232.274 256.266 231.035 254.373 230.098C253.767 229.798 253.048 229.833 252.474 230.192ZM252.607 261.572C254.122 260.82 255.503 259.825 256.711 258.617C262.803 252.525 262.813 242.622 256.733 236.542C256.329 236.139 255.907 235.759 255.466 235.405L255.491 244.135C255.493 244.655 255.287 245.154 254.919 245.522L251.012 249.429C250.637 249.804 250.126 250.011 249.597 250.002L241.835 249.872C241.329 249.864 240.848 249.659 240.49 249.302L236.591 245.402C236.229 245.041 236.024 244.551 236.021 244.038L235.965 235.392C235.51 235.756 235.073 236.147 234.656 236.564C231.059 240.161 229.464 245.105 230.283 250.127C231.103 255.156 234.182 259.332 238.734 261.586C239.397 261.915 239.816 262.591 239.816 263.333C239.816 263.372 239.763 317.802 239.762 317.953C239.762 318.695 239.341 319.373 238.677 319.702C234.121 321.965 231.033 326.151 230.203 331.184C229.375 336.205 230.96 341.143 234.551 344.734C234.954 345.137 235.377 345.516 235.817 345.871L235.791 337.141C235.79 336.62 235.996 336.121 236.364 335.752L240.272 331.845C240.638 331.479 241.134 331.273 241.652 331.272L249.552 331.265C250.069 331.264 250.566 331.469 250.931 331.835L254.831 335.734C255.198 336.102 255.403 336.601 255.401 337.121L255.358 345.852C255.799 345.496 256.223 345.116 256.627 344.712C260.224 341.115 261.818 336.172 261.001 331.154C260.181 326.122 257.101 321.943 252.55 319.689C251.886 319.36 251.467 318.683 251.468 317.942C251.478 306.964 251.507 277.156 251.521 263.321C251.522 262.58 251.943 261.903 252.607 261.572Z" fill="black"/>
<path d="M341.636 286.007C341.636 281.544 336.025 277.314 327.423 274.691C329.408 265.957 328.525 259.008 324.638 256.783C323.742 256.261 322.694 256.014 321.549 256.014V259.076C322.184 259.076 322.694 259.2 323.121 259.433C324.996 260.504 325.81 264.583 325.175 269.829C325.024 271.12 324.776 272.48 324.472 273.867C321.77 273.208 318.82 272.699 315.718 272.37C313.857 269.829 311.927 267.522 309.983 265.503C314.477 261.342 318.696 259.062 321.563 259.062V256C317.772 256 312.809 258.692 307.791 263.361C302.772 258.719 297.809 256.055 294.018 256.055V259.117C296.872 259.117 301.104 261.383 305.599 265.517C303.668 267.536 301.738 269.829 299.905 272.37C296.789 272.699 293.839 273.208 291.137 273.881C290.819 272.507 290.585 271.175 290.42 269.898C289.772 264.652 290.571 260.573 292.432 259.488C292.846 259.241 293.384 259.131 294.018 259.131V256.069C292.86 256.069 291.812 256.316 290.902 256.838C287.028 259.062 286.16 265.998 288.159 274.705C279.584 277.341 274 281.557 274 286.007C274 290.47 279.611 294.7 288.214 297.323C286.229 306.057 287.111 313.006 290.999 315.231C291.895 315.753 292.943 316 294.101 316C297.892 316 302.855 313.308 307.873 308.639C312.892 313.281 317.855 315.945 321.646 315.945C322.804 315.945 323.852 315.698 324.762 315.176C328.636 312.951 329.504 306.016 327.505 297.309C336.053 294.686 341.636 290.456 341.636 286.007ZM323.686 276.847C323.176 278.618 322.542 280.445 321.825 282.271C321.26 281.173 320.667 280.074 320.019 278.976C319.385 277.877 318.709 276.806 318.034 275.762C319.992 276.05 321.88 276.407 323.686 276.847ZM317.372 291.473C316.297 293.327 315.194 295.084 314.05 296.719C311.995 296.897 309.914 296.993 307.818 296.993C305.736 296.993 303.655 296.897 301.614 296.732C300.47 295.098 299.353 293.354 298.278 291.514C297.23 289.715 296.279 287.888 295.41 286.048C296.265 284.208 297.23 282.368 298.264 280.569C299.34 278.715 300.442 276.957 301.587 275.322C303.641 275.144 305.723 275.048 307.818 275.048C309.9 275.048 311.982 275.144 314.022 275.309C315.166 276.943 316.283 278.687 317.358 280.527C318.406 282.326 319.357 284.153 320.226 285.993C319.357 287.833 318.406 289.674 317.372 291.473ZM321.825 289.687C322.57 291.528 323.204 293.368 323.728 295.153C321.922 295.593 320.019 295.963 318.048 296.252C318.723 295.194 319.399 294.109 320.033 292.997C320.667 291.898 321.26 290.786 321.825 289.687ZM307.846 304.341C306.564 303.022 305.281 301.553 304.013 299.946C305.254 300.001 306.522 300.042 307.804 300.042C309.1 300.042 310.382 300.015 311.637 299.946C310.396 301.553 309.114 303.022 307.846 304.341ZM297.589 296.252C295.631 295.963 293.742 295.606 291.936 295.167C292.446 293.395 293.08 291.569 293.797 289.742C294.363 290.841 294.955 291.94 295.603 293.038C296.251 294.137 296.913 295.208 297.589 296.252ZM307.777 267.673C309.059 268.992 310.341 270.461 311.609 272.068C310.369 272.013 309.1 271.972 307.818 271.972C306.522 271.972 305.24 271.999 303.986 272.068C305.226 270.461 306.508 268.992 307.777 267.673ZM297.575 275.762C296.899 276.819 296.224 277.904 295.59 279.017C294.955 280.115 294.363 281.214 293.797 282.313C293.053 280.472 292.419 278.632 291.895 276.847C293.701 276.421 295.603 276.05 297.575 275.762ZM285.098 292.956C280.218 290.882 277.061 288.163 277.061 286.007C277.061 283.851 280.218 281.118 285.098 279.058C286.284 278.55 287.58 278.097 288.917 277.671C289.703 280.363 290.737 283.164 292.019 286.034C290.751 288.891 289.73 291.679 288.958 294.357C287.593 293.931 286.298 293.464 285.098 292.956ZM292.515 312.58C290.64 311.509 289.827 307.431 290.461 302.184C290.613 300.894 290.861 299.534 291.164 298.147C293.866 298.806 296.817 299.314 299.919 299.644C301.78 302.184 303.71 304.492 305.654 306.51C301.159 310.672 296.941 312.951 294.073 312.951C293.453 312.938 292.929 312.814 292.515 312.58ZM325.217 302.116C325.865 307.362 325.065 311.441 323.204 312.526C322.79 312.773 322.253 312.883 321.618 312.883C318.765 312.883 314.532 310.617 310.038 306.483C311.968 304.464 313.898 302.171 315.732 299.63C318.847 299.301 321.798 298.792 324.5 298.119C324.817 299.507 325.065 300.839 325.217 302.116ZM330.524 292.956C329.339 293.464 328.043 293.917 326.706 294.343C325.92 291.651 324.886 288.85 323.604 285.979C324.872 283.123 325.892 280.335 326.664 277.657C328.029 278.083 329.325 278.55 330.538 279.058C335.419 281.132 338.576 283.851 338.576 286.007C338.562 288.163 335.405 290.896 330.524 292.956Z" fill="#61DAFB"/>
<path d="M307.804 292.283C311.284 292.283 314.105 289.473 314.105 286.007C314.105 282.541 311.284 279.731 307.804 279.731C304.325 279.731 301.504 282.541 301.504 286.007C301.504 289.473 304.325 292.283 307.804 292.283Z" fill="#61DAFB"/>
<path fill-rule="evenodd" clip-rule="evenodd" d="M366.694 234.682L370.482 234.683C371.305 234.683 372.035 235.212 372.29 235.994L375.897 247.028C376.071 247.56 376.001 248.143 375.707 248.62L373.918 251.514L373.909 294.583L379.537 294.584C380.041 294.584 380.525 294.784 380.882 295.141C381.239 295.498 381.439 295.982 381.439 296.487L381.437 304.064C381.437 304.13 381.434 304.195 381.427 304.259C381.384 304.686 381.198 305.07 380.919 305.366C380.906 305.38 380.893 305.396 380.88 305.409C380.874 305.414 380.869 305.419 380.863 305.424C380.859 305.428 380.855 305.431 380.851 305.435C380.509 305.763 380.046 305.966 379.534 305.966C379.03 305.966 378.557 306.162 378.2 306.519C377.844 306.875 377.647 307.348 377.647 307.852C377.647 308.892 378.493 309.738 379.533 309.739C380.584 309.739 381.435 310.591 381.435 311.642L381.427 344.436C381.427 346.456 380.636 348.359 379.2 349.795C377.764 351.23 375.86 352.02 373.84 352.019L371.5 352.019C371.497 352.019 371.494 352.019 371.49 352.02C371.489 352.02 371.488 352.019 371.488 352.019C371.485 352.019 371.483 352.019 371.48 352.019L362.569 352.017C358.386 352.016 354.984 348.612 354.985 344.43L354.992 311.636C354.993 310.585 355.845 309.733 356.895 309.734C357.399 309.734 357.873 309.537 358.229 309.181C358.586 308.825 358.782 308.351 358.782 307.848C358.782 307.344 358.586 306.871 358.23 306.514C357.873 306.158 357.4 305.961 356.896 305.961C356.833 305.962 356.769 305.958 356.707 305.952C356.654 305.947 356.602 305.938 356.55 305.928C356.544 305.927 356.539 305.927 356.533 305.926C356.529 305.925 356.526 305.925 356.523 305.924C356.463 305.912 356.405 305.897 356.348 305.88C356.346 305.88 356.344 305.879 356.343 305.879C356.286 305.862 356.23 305.841 356.175 305.819C356.173 305.818 356.172 305.818 356.17 305.817C356.169 305.817 356.168 305.816 356.168 305.816C356.116 305.795 356.066 305.77 356.016 305.745C356.011 305.742 356.005 305.739 355.999 305.736C355.953 305.712 355.909 305.684 355.865 305.656C355.861 305.654 355.857 305.651 355.853 305.649C355.849 305.646 355.844 305.643 355.839 305.64C355.797 305.612 355.758 305.582 355.718 305.551C355.713 305.547 355.708 305.543 355.704 305.54C355.699 305.536 355.694 305.533 355.689 305.529C355.593 305.45 355.505 305.361 355.426 305.265C355.418 305.256 355.412 305.246 355.404 305.236C355.373 305.197 355.343 305.157 355.315 305.116C355.309 305.107 355.304 305.097 355.298 305.088C355.27 305.045 355.243 305.001 355.219 304.956C355.217 304.952 355.215 304.948 355.213 304.943C355.212 304.941 355.211 304.939 355.209 304.936C355.184 304.888 355.16 304.838 355.139 304.787C355.137 304.783 355.136 304.78 355.135 304.776C355.113 304.722 355.093 304.668 355.076 304.612C355.075 304.608 355.074 304.604 355.073 304.6C355.057 304.545 355.043 304.489 355.031 304.433C355.028 304.419 355.027 304.405 355.025 304.391C355.016 304.344 355.008 304.296 355.004 304.248C354.997 304.185 354.994 304.122 354.994 304.059L354.996 296.482C354.997 295.43 355.849 294.579 356.899 294.579L362.527 294.58L362.536 251.511L360.75 248.616C360.435 248.106 360.379 247.479 360.597 246.922L364.922 235.89C365.208 235.162 365.91 234.682 366.694 234.682ZM358.8 302.157L377.632 302.161L377.633 298.389L358.801 298.385L358.8 302.157ZM370.397 249.973L372.005 247.371L369.102 238.488L367.99 238.488L364.486 247.426L366.058 249.972C366.244 250.272 366.342 250.618 366.342 250.972L366.332 294.581L369.632 294.582L370.103 294.582L370.113 250.973C370.113 250.62 370.211 250.274 370.397 249.973ZM377.629 313.216C375.424 312.431 373.842 310.323 373.842 307.852C373.842 307.199 373.952 306.564 374.162 305.965L362.268 305.963C362.478 306.561 362.588 307.196 362.587 307.849C362.587 309.369 361.994 310.798 360.919 311.872C360.31 312.481 359.586 312.935 358.797 313.214L358.79 344.431C358.79 346.419 360.334 348.051 362.286 348.197L366.091 348.212L369.588 348.213L373.394 348.214L373.842 348.214C374.845 348.214 375.793 347.82 376.51 347.103C377.227 346.386 377.622 345.439 377.622 344.436L377.629 313.216Z" fill="black"/>
</svg>
