<?xml version="1.0" ?><!DOCTYPE svg  PUBLIC '-//W3C//DTD SVG 1.1//EN'  'http://www.w3.org/Graphics/SVG/1.1/DTD/svg11.dtd'><svg height="2048px" style="shape-rendering:geometricPrecision; text-rendering:geometricPrecision; image-rendering:optimizeQuality; fill-rule:evenodd; clip-rule:evenodd" viewBox="0 0 2048 2048" width="2048px" xml:space="preserve" xmlns="http://www.w3.org/2000/svg" xmlns:xlink="http://www.w3.org/1999/xlink"><defs><style type="text/css">
   <![CDATA[
    .fil1 {fill:none}
    .fil0 {fill:#CECCCD;fill-rule:nonzero}
   ]]>
  </style></defs><g id="Layer_x0020_1"><path class="fil0" d="M1318.64 413.756c-14.426,44.2737 -37.767,85.3075 -65.8997,119.436l0 0.0625985c-28.3855,34.324 -66.3012,64.6713 -108.482,84.7926 -38.713,18.4665 -81.1489,28.4114 -123.377,25.1197l-12.9236 -1.00748 -1.70197 -12.8681c-5.48622,-41.4992 0.849213,-83.5099 14.1921,-122.387 15.5268,-45.241 40.6772,-86.5205 67.6642,-117.8l-0.00472441 -0.00472441c27.9272,-32.7142 65.3788,-61.1776 105.487,-81.8009 40.2437,-20.6941 83.465,-33.6343 122.803,-35.237l14.8701 -0.605906 1.62992 14.8559c4.76457,43.4481 -1.02992,86.8489 -14.2571,127.445z"/><path class="fil0" d="M1592.05 804.067c-14.2559,8.82048 -152.045,94.0808 -150.337,265.937 1.80236,207.182 177.474,279.003 187.171,282.966l0.0625985 0 0.419292 0.173622 13.7835 5.70709 -4.72087 14.1047c-0.279921,0.836221 0.0377953,-0.0531496 -0.370866,1.25906 -4.48229,14.361 -34.8685,111.708 -103.511,212.014 -31.1481,45.4985 -62.8831,90.9284 -100.352,125.971 -38.7957,36.2823 -83.1024,60.7737 -137.837,61.7906 -51.5894,0.968505 -85.3642,-13.6453 -120.474,-28.8366 -33.4784,-14.4862 -68.2949,-29.5524 -122.779,-29.5524 -57.2339,0 -93.8198,15.5858 -129.06,30.6 -33.1725,14.1319 -65.2548,27.7996 -111.474,29.6433l-0.0625985 0c-53.3693,1.98189 -99.6485,-24.0343 -140.778,-62.5678 -39.3496,-36.8646 -73.8249,-85.1398 -105.241,-130.579 -70.917,-102.399 -132.592,-251.392 -151.647,-402.892 -15.6732,-124.616 -2.57244,-251.206 57.6756,-355.753 33.6331,-58.4953 80.6398,-106.233 135.598,-139.543 54.7075,-33.1571 117.299,-52.0264 182.451,-53.0032l0 -0.0011811c57.0402,-1.03465 110.823,20.3091 157.884,38.9847 33.3059,13.2165 62.98,24.9933 85.226,24.9933 19.6536,0 48.6237,-11.4224 82.3949,-24.737 57.0367,-22.487 126.815,-49.9949 200.599,-42.6579 30.9862,1.34764 95.5265,8.76969 161.501,44.524 42.0284,22.7776 84.6579,56.9741 119.701,108.261l9.23977 13.5248 -13.8024 8.91261c-0.73819,0.477166 -0.0200788,-0.00944883 -1.25906,0.755906z"/></g><rect class="fil1" height="2048" width="2048"/></svg>